<svg width="31" height="30" viewBox="0 0 31 30" fill="none" xmlns="http://www.w3.org/2000/svg">
<g clip-path="url(#clip0_579_1938)">
<g clip-path="url(#clip1_579_1938)">
<path d="M26.2671 7.5H22.5146C22.5146 5.51088 21.7239 3.60322 20.3165 2.1967C18.9091 0.790176 17.0002 0 15.0098 0C13.0193 0 11.1104 0.790176 9.70301 2.1967C8.29557 3.60322 7.50488 5.51088 7.50488 7.5H3.75244C2.75723 7.5 1.80278 7.89509 1.09906 8.59835C0.395345 9.30161 0 10.2554 0 11.25L0 23.75C0.00198611 25.407 0.661532 26.9956 1.83397 28.1672C3.0064 29.3389 4.59599 29.998 6.25407 30H23.7654C25.4235 29.998 27.0131 29.3389 28.1855 28.1672C29.358 26.9956 30.0175 25.407 30.0195 23.75V11.25C30.0195 10.2554 29.6242 9.30161 28.9204 8.59835C28.2167 7.89509 27.2623 7.5 26.2671 7.5ZM15.0098 2.5C16.3367 2.5 17.6093 3.02678 18.5476 3.96447C19.4859 4.90215 20.013 6.17392 20.013 7.5H10.0065C10.0065 6.17392 10.5336 4.90215 11.4719 3.96447C12.4102 3.02678 13.6828 2.5 15.0098 2.5V2.5ZM27.5179 23.75C27.5179 24.7446 27.1225 25.6984 26.4188 26.4017C25.7151 27.1049 24.7607 27.5 23.7654 27.5H6.25407C5.25886 27.5 4.30441 27.1049 3.60069 26.4017C2.89697 25.6984 2.50163 24.7446 2.50163 23.75V11.25C2.50163 10.9185 2.63341 10.6005 2.86798 10.3661C3.10255 10.1317 3.4207 10 3.75244 10H7.50488V12.5C7.50488 12.8315 7.63666 13.1495 7.87123 13.3839C8.10581 13.6183 8.42395 13.75 8.75569 13.75C9.08743 13.75 9.40558 13.6183 9.64015 13.3839C9.87472 13.1495 10.0065 12.8315 10.0065 12.5V10H20.013V12.5C20.013 12.8315 20.1448 13.1495 20.3794 13.3839C20.6139 13.6183 20.9321 13.75 21.2638 13.75C21.5956 13.75 21.9137 13.6183 22.1483 13.3839C22.3829 13.1495 22.5146 12.8315 22.5146 12.5V10H26.2671C26.5988 10 26.917 10.1317 27.1515 10.3661C27.3861 10.6005 27.5179 10.9185 27.5179 11.25V23.75Z" fill="#448456"/>
</g>
</g>
<defs>
<clipPath id="clip0_579_1938">
<rect width="30.0195" height="30" fill="white"/>
</clipPath>
<clipPath id="clip1_579_1938">
<rect width="30.0195" height="30" fill="white"/>
</clipPath>
</defs>
</svg>
